<svg id="Layer_1" data-name="Layer 1" xmlns="http://www.w3.org/2000/svg" viewBox="0 0 38.97 38.97"><defs><style>.cls-1{fill:#d70f16;}.cls-2{fill:#fff;}</style></defs><path class="cls-1" d="M20,39.45A19.49,19.49,0,1,1,39.48,20,19.51,19.51,0,0,1,20,39.45ZM20,2.34A17.63,17.63,0,1,0,37.62,20,17.63,17.63,0,0,0,20,2.34Z" transform="translate(-0.52 -0.48)"/><path class="cls-1" d="M18.36,36a21.4,21.4,0,0,1-3.86-1.78c-.83-.38-1.65-.81-2.46-1.24a2,2,0,0,0-2.1,0c-.52.3-1,.63-1.5,1-.18.12-.29.1-.39-.08-.31-.56-1.09-1-1.36-1.59A9.93,9.93,0,0,1,4,28.19c-.29-.7-.26-.71.46-1,1.7-.7,4.61-1.81,6.31-2.5a3.76,3.76,0,0,1,2.38-.26,2.34,2.34,0,0,1,.75.35C15,25.54,16,26.32,17,27.07a6.39,6.39,0,0,0,2.55,1.21,12.32,12.32,0,0,0,1.49.14c.79,0,1.57,0,2.35.08a1.36,1.36,0,0,1,.69.21A.93.93,0,0,1,24,30.29a7.34,7.34,0,0,1-1.52.58,9,9,0,0,1-5.69-.3A11.53,11.53,0,0,1,15.67,30c-.28-.13-.56-.28-.84-.38a.44.44,0,0,0-.57.25.42.42,0,0,0,.11.58,1.34,1.34,0,0,0,.31.22c.33.19.68.35,1,.56A5.64,5.64,0,0,0,18,32a12.09,12.09,0,0,0,5.25-.3,5.51,5.51,0,0,0,1.24-.55A1.76,1.76,0,0,0,25.41,29a2,2,0,0,0-1.89-1.44c-.46,0-.92,0-1.44,0l.12-.11c.86-.59,1.72-1.19,2.6-1.76a1.24,1.24,0,0,1,2,.89l.31-.21,1.08-.69a.93.93,0,0,1,1.12.08,1.29,1.29,0,0,1,.46,1.7l.53-.36c.33-.21.65-.43,1-.63a.89.89,0,0,1,1.09.08,1.52,1.52,0,0,1,.64.85v.32L33,28a1.46,1.46,0,0,1-.57.89L23,34.79a7.21,7.21,0,0,1-2.31,1L19.61,36Z" transform="translate(-0.52 -0.48)"/><circle class="cls-1" cx="19.48" cy="15.1" r="8.49"/><path class="cls-2" d="M21.52,17.43H16.17a.25.25,0,0,1-.26-.26v-1.3a.26.26,0,0,1,.26-.27h5.29a2.47,2.47,0,0,0,1.05-.19,1.25,1.25,0,0,0,.61-.54,1.63,1.63,0,0,0,.19-.82,1.79,1.79,0,0,0-.19-.84,1.45,1.45,0,0,0-.6-.6,2,2,0,0,0-1-.22H19.83a.27.27,0,0,0-.27.27v8.42a.26.26,0,0,1-.26.27H17.56a.27.27,0,0,1-.27-.27V10.8a.27.27,0,0,1,.27-.27h4a4.83,4.83,0,0,1,2.2.46,3.29,3.29,0,0,1,1.4,1.25A3.34,3.34,0,0,1,25.6,14a3.11,3.11,0,0,1-1.91,3A5.32,5.32,0,0,1,21.52,17.43Zm-.44,1v1.3a.25.25,0,0,1-.22.26H16.13a.25.25,0,0,1-.22-.26V18.4a.25.25,0,0,1,.22-.27h4.73A.25.25,0,0,1,21.08,18.4Z" transform="translate(-0.52 -0.48)"/></svg>