<svg id="Layer_1" data-name="Layer 1" xmlns="http://www.w3.org/2000/svg" viewBox="0 0 38.97 38.97"><defs><style>.cls-1{fill:#d70f16;}</style></defs><path class="cls-1" d="M20,39.48A19.48,19.48,0,1,1,39.48,20,19.5,19.5,0,0,1,20,39.48Zm0-37.1A17.62,17.62,0,1,0,37.62,20,17.63,17.63,0,0,0,20,2.38Z" transform="translate(-0.52 -0.52)"/><path class="cls-1" d="M12.46,13.4A3.53,3.53,0,0,1,15,12.47a3.51,3.51,0,0,1,2.53.93,3.47,3.47,0,0,1,1,2.64,3.43,3.43,0,0,1-1,2.63A3.51,3.51,0,0,1,15,19.6a3.53,3.53,0,0,1-2.54-.93,3.4,3.4,0,0,1-1-2.63A3.44,3.44,0,0,1,12.46,13.4ZM14,16c0,.95.33,1.43,1,1.43a.9.9,0,0,0,.76-.36A1.76,1.76,0,0,0,16,16c0-1-.34-1.46-1-1.46S14,15.07,14,16Zm11.3-2.35-7.4,13.52a.68.68,0,0,1-.58.35h-2a.66.66,0,0,1-.59-1l7.4-13.53a.68.68,0,0,1,.58-.35h2A.67.67,0,0,1,25.27,13.69Zm-2.78,7.9A3.51,3.51,0,0,1,25,20.66a3.49,3.49,0,0,1,2.53.93,3.45,3.45,0,0,1,1,2.63A3.28,3.28,0,0,1,25,27.79a3.51,3.51,0,0,1-2.53-.93,3.47,3.47,0,0,1-1-2.64A3.45,3.45,0,0,1,22.49,21.59Zm1.76,1.54A1.81,1.81,0,0,0,24,24.22c0,1,.33,1.44,1,1.44a.9.9,0,0,0,.76-.36A1.79,1.79,0,0,0,26,24.22a1.81,1.81,0,0,0-.27-1.08,1,1,0,0,0-1.51,0Z" transform="translate(-0.52 -0.52)"/></svg>