<svg width="20" height="18" viewBox="0 0 20 18" fill="none" xmlns="http://www.w3.org/2000/svg">
<g clip-path="url(#clip0_163_1441)">
<path d="M0.7 8.26245H19.3C19.6875 8.26245 20 8.58877 20 8.99342C20 9.39806 19.6875 9.72438 19.3 9.72438H0.7C0.3125 9.73743 0 9.41111 0 9.00647C0 8.60183 0.3125 8.26245 0.7 8.26245Z" fill="#D90E15"/>
<path d="M0.7 15.3894H19.3C19.6875 15.3894 20 15.7157 20 16.1204C20 16.525 19.6875 16.8513 19.3 16.8513H0.7C0.3125 16.8513 0 16.525 0 16.1204C0 15.7157 0.3125 15.3894 0.7 15.3894Z" fill="#D90E15"/>
<path d="M0.7 1.14868H19.3C19.6875 1.14868 20 1.47501 20 1.87965C20 2.28429 19.6875 2.61061 19.3 2.61061H0.7C0.3125 2.61061 0 2.28429 0 1.87965C0 1.47501 0.3125 1.14868 0.7 1.14868Z" fill="#D90E15"/>
<path d="M5.8498 10.2986C6.53326 10.2986 7.0873 9.72004 7.0873 9.00635C7.0873 8.29267 6.53326 7.71411 5.8498 7.71411C5.16635 7.71411 4.6123 8.29267 4.6123 9.00635C4.6123 9.72004 5.16635 10.2986 5.8498 10.2986Z" fill="white"/>
<path d="M5.8498 10.873C4.8623 10.873 4.0498 10.0376 4.0498 8.99339C4.0498 7.94916 4.8498 7.11377 5.8498 7.11377C6.8498 7.11377 7.6498 7.96221 7.6498 9.00645C7.6498 10.0507 6.8498 10.873 5.8498 10.873ZM5.8498 8.30159C5.4748 8.30159 5.1748 8.61486 5.1748 9.00645C5.1748 9.39803 5.4748 9.7113 5.8498 9.7113C6.2248 9.7113 6.5248 9.39803 6.5248 9.00645C6.5248 8.61486 6.2248 8.30159 5.8498 8.30159Z" fill="#D90E15"/>
<path d="M14.7502 17.4126C15.4336 17.4126 15.9877 16.8341 15.9877 16.1204C15.9877 15.4067 15.4336 14.8281 14.7502 14.8281C14.0667 14.8281 13.5127 15.4067 13.5127 16.1204C13.5127 16.8341 14.0667 17.4126 14.7502 17.4126Z" fill="white"/>
<path d="M14.7502 18C13.7627 18 12.9502 17.1646 12.9502 16.1203C12.9502 15.0761 13.7502 14.2407 14.7502 14.2407C15.7502 14.2407 16.5502 15.0761 16.5502 16.1203C16.5502 17.1646 15.7502 18 14.7502 18ZM14.7502 15.4285C14.3752 15.4285 14.0752 15.7418 14.0752 16.1334C14.0752 16.525 14.3752 16.8383 14.7502 16.8383C15.1252 16.8383 15.4252 16.525 15.4252 16.1334C15.4252 15.7418 15.1252 15.4285 14.7502 15.4285Z" fill="#D90E15"/>
<path d="M13.3254 3.17188C14.0088 3.17188 14.5629 2.59333 14.5629 1.87964C14.5629 1.16596 14.0088 0.587402 13.3254 0.587402C12.6419 0.587402 12.0879 1.16596 12.0879 1.87964C12.0879 2.59333 12.6419 3.17188 13.3254 3.17188Z" fill="white"/>
<path d="M13.3254 3.74619C12.3379 3.74619 11.5254 2.9108 11.5254 1.86657C11.5254 0.822335 12.3379 0 13.3254 0C14.3129 0 15.1254 0.835388 15.1254 1.87962C15.1254 2.92386 14.3129 3.74619 13.3254 3.74619ZM13.3254 1.17476C12.9504 1.17476 12.6504 1.48803 12.6504 1.87962C12.6504 2.27121 12.9504 2.58448 13.3254 2.58448C13.7004 2.58448 14.0004 2.27121 14.0004 1.87962C14.0004 1.48803 13.6879 1.17476 13.3254 1.17476Z" fill="#D90E15"/>
</g>
<defs>
<clipPath id="clip0_163_1441">
<rect width="20" height="18" fill="white"/>
</clipPath>
</defs>
</svg>
