<svg id="Layer_1" data-name="Layer 1" xmlns="http://www.w3.org/2000/svg" viewBox="0 0 38.97 38.97"><defs><style>.cls-1{fill:#d70f16;}.cls-2{fill:#fff;}.cls-3{fill:none;stroke:#d70f16;stroke-linecap:round;stroke-miterlimit:10;stroke-width:2.33px;}</style></defs><path class="cls-1" d="M20,39.48A19.48,19.48,0,1,1,39.48,20,19.5,19.5,0,0,1,20,39.48Zm0-37.1A17.62,17.62,0,1,0,37.62,20,17.63,17.63,0,0,0,20,2.38Z" transform="translate(-0.52 -0.52)"/><circle class="cls-1" cx="29.34" cy="29.35" r="9.61"/><path class="cls-2" d="M31.57,32H25.52a.29.29,0,0,1-.3-.3V30.2a.29.29,0,0,1,.3-.3h6a2.77,2.77,0,0,0,1.2-.22,1.36,1.36,0,0,0,.68-.61,1.83,1.83,0,0,0,.22-.93,2,2,0,0,0-.22-.95,1.62,1.62,0,0,0-.67-.68,2.4,2.4,0,0,0-1.14-.25H29.66a.3.3,0,0,0-.3.3V36.1a.29.29,0,0,1-.3.3h-2a.29.29,0,0,1-.3-.3V24.46a.29.29,0,0,1,.3-.3h4.48a5.45,5.45,0,0,1,2.49.52,3.77,3.77,0,0,1,1.59,1.41A3.69,3.69,0,0,1,34,31.5,5.89,5.89,0,0,1,31.57,32Zm-.5,1.09v1.48a.28.28,0,0,1-.25.3H25.47a.28.28,0,0,1-.25-.3V33.06a.28.28,0,0,1,.25-.3h5.35A.28.28,0,0,1,31.07,33.06Z" transform="translate(-0.52 -0.52)"/><line class="cls-3" x1="19.48" y1="8.25" x2="19.48" y2="19.48"/><line class="cls-3" x1="10.95" y1="24.93" x2="19.48" y2="19.48"/></svg>